<svg xmlns="http://www.w3.org/2000/svg" xmlns:xlink="http://www.w3.org/1999/xlink" width="2690" zoomAndPan="magnify" viewBox="0 0 2017.5 951.749994" height="1269" preserveAspectRatio="xMidYMid meet" version="1.2"><defs><clipPath id="59567c56c9"><path d="M 842.445312 177.992188 L 1174.609375 177.992188 L 1174.609375 313.625 L 842.445312 313.625 Z M 842.445312 177.992188 "/></clipPath></defs><g id="0308426a5b"><g clip-rule="nonzero" clip-path="url(#59567c56c9)"><path style=" stroke:none;fill-rule:nonzero;fill:#ffffff;fill-opacity:1;" d="M 975.359375 300.722656 L 1038.410156 300.722656 L 1038.410156 313.589844 L 958.5 313.589844 L 958.5 245.773438 L 975.359375 245.773438 Z M 904.976562 245.773438 C 910.570312 245.773438 913.40625 247.957031 913.40625 252.328125 L 913.40625 271.589844 C 913.40625 275.957031 910.570312 278.144531 904.976562 278.144531 L 892.414062 278.144531 L 892.414062 297.484375 L 875.558594 297.484375 L 875.558594 245.773438 Z M 945.96875 245.773438 C 951.5625 245.773438 954.398438 247.957031 954.398438 252.328125 L 954.398438 297.484375 L 924.980469 297.484375 C 919.386719 297.484375 916.550781 295.378906 916.550781 291.089844 L 916.550781 271.589844 C 916.550781 267.300781 919.386719 265.195312 924.980469 265.195312 L 937.542969 265.195312 L 937.542969 258.882812 C 937.542969 258.800781 937.460938 258.722656 937.378906 258.722656 L 933.570312 258.722656 C 933.488281 258.722656 933.40625 258.800781 933.40625 258.882812 L 933.40625 261.878906 L 916.550781 261.878906 L 916.550781 252.328125 C 916.550781 247.957031 919.386719 245.773438 924.980469 245.773438 Z M 996.429688 249.089844 C 998.457031 246.90625 1002.507812 245.773438 1007.371094 245.773438 C 1012.316406 245.773438 1014.746094 247.066406 1016.609375 249.65625 C 1019.121094 246.5 1022.769531 245.773438 1028.035156 245.773438 C 1033.871094 245.773438 1038.410156 248.765625 1038.410156 252.976562 L 1038.410156 297.484375 L 1021.714844 297.484375 L 1021.714844 258.882812 C 1021.714844 258.800781 1021.632812 258.722656 1021.554688 258.722656 L 1017.582031 258.722656 C 1017.5 258.722656 1017.421875 258.800781 1017.421875 258.882812 L 1017.421875 297.484375 L 1000.5625 297.484375 L 1000.5625 258.882812 C 1000.5625 258.800781 1000.480469 258.722656 1000.398438 258.722656 L 996.59375 258.722656 C 996.511719 258.722656 996.429688 258.800781 996.429688 258.882812 L 996.429688 297.484375 L 979.574219 297.484375 L 979.574219 245.773438 L 996.429688 245.773438 Z M 1132.539062 252.21875 C 1132.539062 256.507812 1129.703125 258.613281 1124.109375 258.613281 L 1080.238281 258.613281 L 1080.238281 297.484375 L 1050.820312 297.484375 C 1045.226562 297.484375 1042.390625 295.378906 1042.390625 291.089844 L 1042.390625 271.589844 C 1042.390625 267.300781 1045.226562 265.195312 1050.820312 265.195312 L 1063.378906 265.195312 L 1063.378906 258.882812 C 1063.378906 258.800781 1063.300781 258.722656 1063.21875 258.722656 L 1059.410156 258.722656 C 1059.328125 258.722656 1059.25 258.800781 1059.25 258.882812 L 1059.25 261.878906 L 1042.390625 261.878906 L 1042.390625 252.328125 C 1042.390625 247.957031 1045.226562 245.773438 1050.820312 245.773438 L 1069.292969 245.773438 L 1069.292969 245.746094 L 1115.519531 245.746094 C 1115.601562 245.746094 1115.679688 245.664062 1115.679688 245.582031 L 1115.679688 242.507812 L 1103.121094 242.507812 C 1097.527344 242.507812 1094.691406 240.402344 1094.691406 236.113281 L 1094.691406 197.351562 C 1094.691406 192.980469 1097.527344 190.796875 1103.121094 190.796875 L 1132.539062 190.796875 Z M 933.570312 276.523438 C 933.488281 276.523438 933.40625 276.605469 933.40625 276.6875 L 933.40625 284.457031 C 933.40625 284.535156 933.488281 284.617188 933.570312 284.617188 L 937.542969 284.617188 L 937.542969 276.523438 Z M 1059.410156 276.523438 C 1059.328125 276.523438 1059.25 276.605469 1059.25 276.6875 L 1059.25 284.457031 C 1059.25 284.535156 1059.328125 284.617188 1059.410156 284.617188 L 1063.378906 284.617188 L 1063.378906 276.523438 Z M 892.414062 265.921875 L 896.386719 265.921875 C 896.46875 265.921875 896.546875 265.84375 896.546875 265.761719 L 896.546875 258.882812 C 896.546875 258.800781 896.46875 258.722656 896.386719 258.722656 L 892.414062 258.722656 Z M 880.292969 242.570312 L 850.875 242.570312 C 845.039062 242.570312 842.445312 240.46875 842.445312 236.179688 L 842.445312 197.414062 C 842.445312 193.046875 845.28125 190.859375 850.875 190.859375 L 863.4375 190.859375 L 863.4375 177.914062 L 880.292969 177.914062 Z M 913.730469 190.859375 C 919.324219 190.859375 922.160156 193.046875 922.160156 197.414062 L 922.160156 223.230469 L 901.167969 223.230469 L 901.167969 229.542969 C 901.167969 229.625 901.25 229.703125 901.332031 229.703125 L 905.140625 229.703125 C 905.222656 229.703125 905.304688 229.625 905.304688 229.542969 L 905.304688 226.46875 L 922.160156 226.46875 L 922.160156 236.179688 C 922.160156 240.46875 919.324219 242.570312 913.730469 242.570312 L 892.742188 242.570312 C 887.148438 242.570312 884.3125 240.46875 884.3125 236.179688 L 884.3125 197.414062 C 884.3125 193.046875 887.148438 190.859375 892.742188 190.859375 Z M 945.796875 222.097656 L 950.011719 190.859375 L 966.460938 190.859375 L 957.953125 242.570312 L 932.75 242.570312 L 924.402344 190.859375 L 941.5 190.859375 Z M 1019.613281 190.796875 C 1025.207031 190.796875 1028.042969 192.980469 1028.042969 197.351562 L 1028.042969 236.113281 C 1028.042969 240.402344 1025.207031 242.507812 1019.613281 242.507812 L 990.195312 242.507812 L 990.195312 190.796875 Z M 1048.917969 242.507812 L 1032.0625 242.507812 L 1032.0625 190.796875 L 1048.917969 190.796875 Z M 1082.371094 190.796875 C 1087.964844 190.796875 1090.800781 192.980469 1090.800781 197.351562 L 1090.800781 223.167969 L 1069.808594 223.167969 L 1069.808594 229.476562 C 1069.808594 229.558594 1069.890625 229.640625 1069.972656 229.640625 L 1073.78125 229.640625 C 1073.859375 229.640625 1073.941406 229.558594 1073.941406 229.476562 L 1073.941406 226.402344 L 1090.800781 226.402344 L 1090.800781 236.113281 C 1090.800781 240.402344 1087.964844 242.507812 1082.371094 242.507812 L 1061.378906 242.507812 C 1055.789062 242.507812 1052.953125 240.402344 1052.953125 236.113281 L 1052.953125 197.351562 C 1052.953125 192.980469 1055.789062 190.796875 1061.378906 190.796875 Z M 1166.027344 190.796875 C 1171.621094 190.796875 1174.457031 192.980469 1174.457031 197.351562 L 1174.457031 236.113281 C 1174.457031 240.402344 1171.621094 242.507812 1166.027344 242.507812 L 1145.039062 242.507812 C 1139.445312 242.507812 1136.609375 240.402344 1136.609375 236.113281 L 1136.609375 197.351562 C 1136.609375 192.980469 1139.445312 190.796875 1145.039062 190.796875 Z M 859.464844 203.808594 C 859.382812 203.808594 859.300781 203.890625 859.300781 203.96875 L 859.300781 229.542969 C 859.300781 229.625 859.382812 229.703125 859.464844 229.703125 L 863.4375 229.703125 L 863.4375 203.808594 Z M 1007.050781 229.640625 L 1011.023438 229.640625 C 1011.105469 229.640625 1011.183594 229.558594 1011.183594 229.476562 L 1011.183594 203.90625 C 1011.183594 203.824219 1011.105469 203.746094 1011.023438 203.746094 L 1007.050781 203.746094 Z M 1111.710938 203.746094 C 1111.628906 203.746094 1111.546875 203.824219 1111.546875 203.90625 L 1111.546875 229.476562 C 1111.546875 229.558594 1111.628906 229.640625 1111.710938 229.640625 L 1115.679688 229.640625 L 1115.679688 203.746094 Z M 1153.628906 203.746094 C 1153.546875 203.746094 1153.464844 203.824219 1153.464844 203.90625 L 1153.464844 229.476562 C 1153.464844 229.558594 1153.546875 229.640625 1153.628906 229.640625 L 1157.4375 229.640625 C 1157.519531 229.640625 1157.597656 229.558594 1157.597656 229.476562 L 1157.597656 203.90625 C 1157.597656 203.824219 1157.519531 203.746094 1157.4375 203.746094 Z M 901.332031 203.808594 C 901.25 203.808594 901.167969 203.890625 901.167969 203.96875 L 901.167969 211.171875 L 905.304688 211.171875 L 905.304688 203.96875 C 905.304688 203.890625 905.222656 203.808594 905.140625 203.808594 Z M 1069.972656 203.746094 C 1069.890625 203.746094 1069.808594 203.824219 1069.808594 203.90625 L 1069.808594 211.109375 L 1073.941406 211.109375 L 1073.941406 203.90625 C 1073.941406 203.824219 1073.859375 203.746094 1073.78125 203.746094 Z M 1069.972656 203.746094 "/></g></g></svg>