<svg width="2187" height="1100" viewBox="0 0 2187 1100" fill="none" xmlns="http://www.w3.org/2000/svg">
<path d="M541.849 0C664.353 4.48644e-05 772.199 22.512 865.387 67.5352C958.574 111.511 1031.34 174.334 1083.7 256.004C1121.56 315.078 1145.74 382.37 1156.21 457.879V0H1685.5C1788.11 3.98607e-05 1876.58 16.7532 1950.92 50.2588C2026.31 83.7644 2084.42 131.928 2125.26 194.751C2166.09 256.527 2186.51 329.821 2186.51 414.632C2186.51 499.443 2166.09 572.737 2125.26 634.513C2084.42 696.289 2026.31 744.452 1950.92 779.005C1876.58 812.51 1788.11 829.264 1685.5 829.264H1526.87V1099.4H1156.21V639.25C1145.74 715.517 1121.56 783.566 1083.7 843.398C1031.34 925.068 958.574 988.415 865.387 1033.44C772.199 1077.41 664.353 1099.4 541.849 1099.4H0V0H541.849ZM370.655 810.417H526.143C578.495 810.417 624.041 800.47 662.782 780.576C702.57 760.682 733.458 731.365 755.446 692.624C777.434 652.836 788.429 604.671 788.429 548.131C788.429 492.637 777.434 445.52 755.446 406.779C733.458 368.038 702.57 338.721 662.782 318.827C624.041 298.933 578.495 288.985 526.143 288.985H370.655V810.417ZM1526.87 543.419H1661.94C1713.24 543.419 1750.94 531.901 1775.02 508.866C1800.15 485.831 1812.71 454.42 1812.71 414.632C1812.71 374.844 1800.15 343.433 1775.02 320.397C1750.94 297.362 1713.24 285.845 1661.94 285.845H1526.87V543.419Z" fill="white"/>
</svg>
